<?xml version="1.0" encoding="UTF-8" standalone="no"?>
<svg
   xmlns:dc="http://purl.org/dc/elements/1.1/"
   xmlns:cc="http://creativecommons.org/ns#"
   xmlns:rdf="http://www.w3.org/1999/02/22-rdf-syntax-ns#"
   xmlns:svg="http://www.w3.org/2000/svg"
   xmlns="http://www.w3.org/2000/svg"
   xmlns:sodipodi="http://sodipodi.sourceforge.net/DTD/sodipodi-0.dtd"
   xmlns:inkscape="http://www.inkscape.org/namespaces/inkscape"
   version="1.0"
   width="1194.000000pt"
   height="1038.000000pt"
   viewBox="0 0 1194.000000 1038.000000"
   preserveAspectRatio="xMidYMid meet"
   id="svg3739"
   sodipodi:docname="buzz-bee-offwhite.svg"
   inkscape:version="0.92.4 (5da689c313, 2019-01-14)"
   inkscape:export-filename="buzz-logo-offwhite-nobg.png"
   inkscape:export-xdpi="96"
   inkscape:export-ydpi="96">
  <defs
     id="defs3743" />
  <sodipodi:namedview
     pagecolor="#ffffff"
     bordercolor="#666666"
     borderopacity="1"
     objecttolerance="10"
     gridtolerance="10"
     guidetolerance="10"
     inkscape:pageopacity="0"
     inkscape:pageshadow="2"
     inkscape:window-width="3840"
     inkscape:window-height="2004"
     id="namedview3741"
     showgrid="false"
     inkscape:zoom="1.2117052"
     inkscape:cx="550.06559"
     inkscape:cy="692"
     inkscape:window-x="4784"
     inkscape:window-y="-16"
     inkscape:window-maximized="1"
     inkscape:current-layer="g3737" />
  <metadata
     id="metadata3733">
Created by potrace 1.15, written by Peter Selinger 2001-2017
<rdf:RDF>
  <cc:Work
     rdf:about="">
    <dc:format>image/svg+xml</dc:format>
    <dc:type
       rdf:resource="http://purl.org/dc/dcmitype/StillImage" />
    <dc:title></dc:title>
  </cc:Work>
</rdf:RDF>
</metadata>
  <g
     transform="translate(0.000000,1038.000000) scale(0.100000,-0.100000)"
     fill="#000000"
     stroke="none"
     id="g3737">
    <path
       d="M5595 8714 c-255 -29 -492 -98 -708 -206 -285 -142 -516 -373 -606 -606 -86 -223 -79 -378 24 -589 56 -114 146 -234 231 -311 63 -56 64 -58 64 -109 0 -29 -2 -53 -3 -53 -10 0 -355 -126 -528 -193 -577 -222 -912 -398 -1102 -577 -220 -208 -364 -512 -397 -833 -27 -270 76 -600 268 -857 280 -375 789 -597 1207 -526 55 9 152 35 215 58 74 26 139 42 183 45 l67 5 32 -74 c55 -124 155 -324 219 -436 173 -300 300 -492 582 -875 106 -144 244 -334 307 -422 62 -88 117 -164 121 -168 4 -5 38 35 75 90 75 108 218 304 395 543 350 472 588 862 754 1235 l44 100 51 3 c38 2 70 -5 137 -32 237 -94 456 -117 678 -71 582 121 1024 608 1085 1198 28 270 -76 611 -259 852 -133 174 -232 255 -486 398 -243 136 -643 306 -1120 477 l-160 57 -3 53 -3 53 65 59 c126 114 253 316 292 463 25 98 29 201 10 284 -50 220 -167 405 -356 563 -227 190 -516 319 -848 379 -114 20 -428 34 -527 23z m-85 -1987 c0 -54 -20 -125 -122 -437 -186 -569 -346 -989 -514 -1356 -186 -405 -301 -549 -533 -664 -166 -83 -392 -116 -611 -91 -380 45 -676 290 -795 661 -25 76 -28 104 -33 260 -2 105 0 204 7 247 25 162 99 327 201 446 216 252 789 500 2230 964 36 12 89 22 118 22 l52 1 0 -53z m1104 -101 c949 -317 1474 -540 1720 -730 134 -104 247 -280 298 -462 19 -70 22 -103 22 -294 0 -206 -1 -219 -27 -303 -86 -278 -284 -498 -542 -604 -134 -54 -207 -66 -400 -67 -192 -1 -273 13 -411 69 -206 85 -344 217 -470 450 -150 276 -361 806 -556 1390 -140 423 -188 586 -188 641 l0 54 62 0 c52 0 124 -21 492 -144z m-595 -836 c24 -69 83 -232 132 -363 69 -185 89 -249 89 -289 l0 -51 -87 7 c-206 17 -382 22 -515 15 -79 -4 -182 -11 -230 -15 l-88 -7 0 55 c0 44 12 86 61 209 34 85 90 235 126 334 36 99 70 192 75 208 l10 27 191 -2 192 -3 44 -125z m46 -1541 c206 -17 345 -44 628 -121 l37 -10 0 -60 c0 -52 -8 -77 -66 -201 -36 -78 -109 -218 -162 -310 l-97 -169 -75 5 c-41 3 -118 14 -170 25 -254 55 -503 55 -757 1 -54 -12 -134 -24 -178 -26 l-80 -5 -73 129 c-41 70 -113 207 -160 303 -81 164 -87 179 -87 239 l0 63 91 28 c179 55 345 86 614 113 81 8 424 6 535 -4z"
       id="path3735"
       style="fill:#1c1e34;fill-opacity:0.93043476" />
    <path
       style="fill:#fffce7;fill-opacity:1"
       id="path6641"
       d="M5595 8714 c-255 -29 -492 -98 -708 -206 -285 -142 -516 -373 -606 -606 -86 -223 -79 -378 24 -589 56 -114 146 -234 231 -311 63 -56 64 -58 64 -109 0 -29 -2 -53 -3 -53 -10 0 -355 -126 -528 -193 -577 -222 -912 -398 -1102 -577 -220 -208 -364 -512 -397 -833 -27 -270 76 -600 268 -857 280 -375 789 -597 1207 -526 55 9 152 35 215 58 74 26 139 42 183 45 l67 5 32 -74 c55 -124 155 -324 219 -436 173 -300 300 -492 582 -875 106 -144 244 -334 307 -422 62 -88 117 -164 121 -168 4 -5 38 35 75 90 75 108 218 304 395 543 350 472 588 862 754 1235 l44 100 51 3 c38 2 70 -5 137 -32 237 -94 456 -117 678 -71 582 121 1024 608 1085 1198 28 270 -76 611 -259 852 -133 174 -232 255 -486 398 -243 136 -643 306 -1120 477 l-160 57 -3 53 -3 53 65 59 c126 114 253 316 292 463 25 98 29 201 10 284 -50 220 -167 405 -356 563 -227 190 -516 319 -848 379 -114 20 -428 34 -527 23z m-85 -1987 c0 -54 -20 -125 -122 -437 -186 -569 -346 -989 -514 -1356 -186 -405 -301 -549 -533 -664 -166 -83 -392 -116 -611 -91 -380 45 -676 290 -795 661 -25 76 -28 104 -33 260 -2 105 0 204 7 247 25 162 99 327 201 446 216 252 789 500 2230 964 36 12 89 22 118 22 l52 1 0 -53z m1104 -101 c949 -317 1474 -540 1720 -730 134 -104 247 -280 298 -462 19 -70 22 -103 22 -294 0 -206 -1 -219 -27 -303 -86 -278 -284 -498 -542 -604 -134 -54 -207 -66 -400 -67 -192 -1 -273 13 -411 69 -206 85 -344 217 -470 450 -150 276 -361 806 -556 1390 -140 423 -188 586 -188 641 l0 54 62 0 c52 0 124 -21 492 -144z m-595 -836 c24 -69 83 -232 132 -363 69 -185 89 -249 89 -289 l0 -51 -87 7 c-206 17 -382 22 -515 15 -79 -4 -182 -11 -230 -15 l-88 -7 0 55 c0 44 12 86 61 209 34 85 90 235 126 334 36 99 70 192 75 208 l10 27 191 -2 192 -3 44 -125z m46 -1541 c206 -17 345 -44 628 -121 l37 -10 0 -60 c0 -52 -8 -77 -66 -201 -36 -78 -109 -218 -162 -310 l-97 -169 -75 5 c-41 3 -118 14 -170 25 -254 55 -503 55 -757 1 -54 -12 -134 -24 -178 -26 l-80 -5 -73 129 c-41 70 -113 207 -160 303 -81 164 -87 179 -87 239 l0 63 91 28 c179 55 345 86 614 113 81 8 424 6 535 -4z" />
  </g>
</svg>
